<svg width="106" height="53" viewBox="0 0 106 53" fill="none" xmlns="http://www.w3.org/2000/svg">
<path d="M18.664 1.46897V51.293H8.512V15.149H0.88V6.58097H4.912C8.008 6.58097 9.88 5.86097 10.096 1.46897H18.664ZM44.4889 52.085C36.4249 52.085 25.8409 47.693 25.8409 26.381C25.8409 5.06897 36.4249 0.604965 44.4889 0.604965C52.5529 0.604965 63.1369 5.06897 63.1369 26.381C63.1369 47.693 52.5529 52.085 44.4889 52.085ZM44.4889 8.88497C40.3129 8.88497 35.9209 11.621 35.9209 26.381C35.9209 41.213 40.3129 43.805 44.4889 43.805C48.6649 43.805 53.0569 41.213 53.0569 26.381C53.0569 11.621 48.6649 8.88497 44.4889 8.88497ZM78.0882 11.837L86.2242 24.149L93.9282 11.837H104.872L91.6962 31.493L105.304 51.293H94.0722L85.5042 38.477L77.2962 51.293H66.3522L80.1762 30.989L67.1442 11.837H78.0882Z" fill="url(#paint0_linear_625_1458)"/>
<defs>
<linearGradient id="paint0_linear_625_1458" x1="3.83991" y1="-46.3946" x2="125.025" y2="-29.7859" gradientUnits="userSpaceOnUse">
<stop stop-color="#CAA648"/>
<stop offset="0.0994764" stop-color="#CAA648"/>
<stop offset="0.24" stop-color="#D5B147"/>
<stop offset="0.44" stop-color="#E4C267"/>
<stop offset="0.74" stop-color="#E2C065"/>
<stop offset="0.85" stop-color="#DBB95E"/>
<stop offset="0.92" stop-color="#D0AE52"/>
<stop offset="0.98" stop-color="#C09F41"/>
<stop offset="1" stop-color="#BB9A3C"/>
</linearGradient>
</defs>
</svg>
