<svg width="184" height="85" viewBox="0 0 184 85" fill="none" xmlns="http://www.w3.org/2000/svg">
<path d="M20.664 1.46897V51.293H10.512V15.149H2.88V6.58097H6.912C10.008 6.58097 11.88 5.86097 12.096 1.46897H20.664ZM46.4889 52.085C38.4249 52.085 27.8409 47.693 27.8409 26.381C27.8409 5.06897 38.4249 0.604965 46.4889 0.604965C54.5529 0.604965 65.1369 5.06897 65.1369 26.381C65.1369 47.693 54.5529 52.085 46.4889 52.085ZM46.4889 8.88497C42.3129 8.88497 37.9209 11.621 37.9209 26.381C37.9209 41.213 42.3129 43.805 46.4889 43.805C50.6649 43.805 55.0569 41.213 55.0569 26.381C55.0569 11.621 50.6649 8.88497 46.4889 8.88497ZM80.0882 11.837L88.2242 24.149L95.9282 11.837H106.872L93.6962 31.493L107.304 51.293H96.0722L87.5042 38.477L79.2962 51.293H68.3522L82.1762 30.989L69.1442 11.837H80.0882Z" fill="url(#paint0_linear_625_1457)"/>
<path d="M2.838 78.463C2.838 81.675 4.4 82.929 6.358 82.929C8.096 82.929 9.328 81.939 9.504 80.157H11.33C11 82.995 8.954 84.447 6.226 84.447C3.102 84.447 0.99 82.445 0.99 78.463C0.99 74.459 3.344 72.391 6.402 72.391C9.086 72.391 10.978 73.843 11.286 76.593H9.46C9.218 74.701 8.008 73.909 6.402 73.909C4.4 73.909 2.838 75.207 2.838 78.463ZM24.0585 78.419C24.0585 82.445 21.8585 84.447 18.6905 84.447C15.5005 84.447 13.3005 82.423 13.3005 78.419C13.3005 74.437 15.5005 72.391 18.6905 72.391C21.8585 72.391 24.0585 74.415 24.0585 78.419ZM15.1485 78.419C15.1485 81.697 16.6445 82.929 18.6905 82.929C20.7145 82.929 22.2105 81.697 22.2105 78.419C22.2105 75.163 20.7145 73.909 18.6905 73.909C16.6445 73.909 15.1485 75.141 15.1485 78.419ZM36.4028 84.293H34.5988V76.835C34.5988 74.789 33.5208 73.953 31.8928 73.953C30.0448 73.953 28.3948 75.207 28.3948 77.803V84.293H26.5908V72.545H28.3728V74.283C29.1208 73.183 30.4408 72.391 32.3108 72.391C34.7968 72.391 36.4028 73.887 36.4028 76.219V84.293ZM40.715 78.463C40.715 81.675 42.277 82.929 44.235 82.929C45.973 82.929 47.205 81.939 47.381 80.157H49.207C48.877 82.995 46.831 84.447 44.103 84.447C40.979 84.447 38.867 82.445 38.867 78.463C38.867 74.459 41.221 72.391 44.279 72.391C46.963 72.391 48.855 73.843 49.163 76.593H47.337C47.095 74.701 45.885 73.909 44.279 73.909C42.277 73.909 40.715 75.207 40.715 78.463ZM59.7795 80.245L61.6055 80.267C61.3635 82.335 59.8235 84.447 56.4575 84.447C53.3335 84.447 51.1775 82.423 51.1775 78.441C51.1775 74.789 53.4215 72.391 56.5455 72.391C59.8455 72.391 61.6715 74.855 61.6715 78.727H53.0255C53.0695 80.949 53.9935 82.929 56.5895 82.929C58.5035 82.929 59.6255 81.741 59.7795 80.245ZM53.0915 77.297H59.7135C59.5375 74.811 58.1075 73.909 56.5015 73.909C54.6975 73.909 53.3115 75.119 53.0915 77.297ZM74.0219 84.293H72.2179V76.835C72.2179 74.789 71.1399 73.953 69.5119 73.953C67.6639 73.953 66.0139 75.207 66.0139 77.803V84.293H64.2099V72.545H65.9919V74.283C66.7399 73.183 68.0599 72.391 69.9299 72.391C72.4159 72.391 74.0219 73.887 74.0219 76.219V84.293ZM82.6681 84.227C82.6681 84.227 81.7661 84.359 80.6221 84.359C78.6421 84.359 77.9821 83.523 77.9821 81.565V74.063H76.0461V72.545H77.9821V68.893H79.7861V72.545H82.8221V74.063H79.7861V81.103C79.7861 82.599 80.1161 82.797 81.3041 82.797C81.6341 82.797 82.5581 82.731 82.6681 82.731V84.227ZM91.2103 74.393H90.4183C88.3063 74.393 86.8323 75.119 86.8323 77.891V84.293H85.0283V72.545H86.8103V74.569C87.5803 73.073 89.1423 72.545 90.3743 72.545H91.2103V74.393ZM100.177 79.717V78.375C100.177 78.375 97.6252 78.705 96.3272 78.903C95.0732 79.079 94.0612 79.497 94.0612 80.883C94.0612 82.049 94.8532 82.929 96.4592 82.929C98.6812 82.929 100.177 81.653 100.177 79.717ZM95.3372 77.583C96.4592 77.363 100.177 76.923 100.177 76.923V76.285C100.177 74.657 99.4732 73.887 97.4052 73.887C95.1832 73.887 94.5672 74.899 94.4792 76.087H92.6752C92.6752 74.569 93.5772 72.391 97.4052 72.391C101.431 72.391 101.981 74.481 101.981 76.351V82.401C101.981 82.951 102.003 83.831 102.135 84.293H100.309C100.309 84.293 100.265 83.655 100.265 82.709C99.6932 83.457 98.4392 84.447 96.0412 84.447C93.7752 84.447 92.1912 83.127 92.1912 80.927C92.1912 78.485 94.1492 77.825 95.3372 77.583ZM110.447 84.227C110.447 84.227 109.545 84.359 108.401 84.359C106.421 84.359 105.761 83.523 105.761 81.565V74.063H103.825V72.545H105.761V68.893H107.565V72.545H110.601V74.063H107.565V81.103C107.565 82.599 107.895 82.797 109.083 82.797C109.413 82.797 110.337 82.731 110.447 82.731V84.227ZM114.612 70.213H112.808V68.013H114.612V70.213ZM114.612 84.293H112.808V72.545H114.612V84.293ZM127.893 78.419C127.893 82.445 125.693 84.447 122.525 84.447C119.335 84.447 117.135 82.423 117.135 78.419C117.135 74.437 119.335 72.391 122.525 72.391C125.693 72.391 127.893 74.415 127.893 78.419ZM118.983 78.419C118.983 81.697 120.479 82.929 122.525 82.929C124.549 82.929 126.045 81.697 126.045 78.419C126.045 75.163 124.549 73.909 122.525 73.909C120.479 73.909 118.983 75.141 118.983 78.419ZM140.237 84.293H138.433V76.835C138.433 74.789 137.355 73.953 135.727 73.953C133.879 73.953 132.229 75.207 132.229 77.803V84.293H130.425V72.545H132.207V74.283C132.955 73.183 134.275 72.391 136.145 72.391C138.631 72.391 140.237 73.887 140.237 76.219V84.293Z" fill="#322D2D"/>
<defs>
<linearGradient id="paint0_linear_625_1457" x1="5.83991" y1="-46.3946" x2="127.025" y2="-29.7859" gradientUnits="userSpaceOnUse">
<stop stop-color="#CAA648"/>
<stop offset="0.0994764" stop-color="#CAA648"/>
<stop offset="0.24" stop-color="#D5B147"/>
<stop offset="0.44" stop-color="#E4C267"/>
<stop offset="0.74" stop-color="#E2C065"/>
<stop offset="0.85" stop-color="#DBB95E"/>
<stop offset="0.92" stop-color="#D0AE52"/>
<stop offset="0.98" stop-color="#C09F41"/>
<stop offset="1" stop-color="#BB9A3C"/>
</linearGradient>
</defs>
</svg>
