<svg width="46" height="46" viewBox="0 0 46 46" fill="none" xmlns="http://www.w3.org/2000/svg">
<path d="M12.9271 29.6859C13.3528 29.6952 13.7761 29.6196 14.1723 29.4635C14.5685 29.3075 14.9297 29.074 15.2347 28.7768C15.5397 28.4797 15.7824 28.1247 15.9487 27.7327C16.115 27.3407 16.2016 26.9195 16.2034 26.4936V23.6094C16.2034 23.3272 16.0913 23.0565 15.8917 22.8569C15.6921 22.6574 15.4215 22.5453 15.1393 22.5453H12.003C11.7208 22.5453 11.4501 22.6574 11.2506 22.8569C11.051 23.0565 10.9389 23.3272 10.9389 23.6094C10.9389 23.8916 11.051 24.1622 11.2506 24.3618C11.4501 24.5614 11.7208 24.6735 12.003 24.6735H14.0472V26.4936C14.0366 26.7749 13.9192 27.0415 13.7189 27.2392C13.5186 27.4369 13.2504 27.5508 12.9691 27.5577H9.80479C9.57128 27.5577 9.34006 27.5117 9.12432 27.4224C8.90858 27.333 8.71256 27.202 8.54744 27.0369C8.38232 26.8718 8.25135 26.6758 8.16198 26.46C8.07262 26.2443 8.02663 26.0131 8.02663 25.7796V20.4591C8.02663 19.9875 8.21397 19.5352 8.54744 19.2017C8.88091 18.8683 9.33319 18.6809 9.80479 18.6809H13.8232C14.1054 18.6809 14.376 18.5688 14.5756 18.3693C14.7751 18.1697 14.8873 17.899 14.8873 17.6168C14.8873 17.3346 14.7751 17.064 14.5756 16.8644C14.376 16.6648 14.1054 16.5527 13.8232 16.5527H9.80479C8.76876 16.5527 7.77517 16.9643 7.04258 17.6969C6.31 18.4295 5.89844 19.4231 5.89844 20.4591V25.7796C5.89844 26.8156 6.31 27.8092 7.04258 28.5418C7.77517 29.2744 8.76876 29.6859 9.80479 29.6859H12.9271Z" fill="#322D2D"/>
<path d="M27.4024 29.6846C27.6846 29.6846 27.9552 29.5725 28.1548 29.373C28.3543 29.1734 28.4665 28.9027 28.4665 28.6205V17.6155C28.4696 17.3843 28.3972 17.1583 28.2604 16.9718C28.1236 16.7853 27.9298 16.6484 27.7082 16.582C27.4867 16.5155 27.2495 16.5231 27.0326 16.6034C26.8158 16.6838 26.631 16.8327 26.5063 17.0275L23.202 21.9979L19.8837 17.0275C19.7596 16.8354 19.5762 16.6891 19.3614 16.6108C19.1466 16.5325 18.9121 16.5264 18.6936 16.5934C18.4755 16.6617 18.2847 16.7975 18.1488 16.9812C18.0129 17.1649 17.9389 17.387 17.9375 17.6155V28.6205C17.9375 28.9027 18.0496 29.1734 18.2492 29.373C18.4487 29.5725 18.7194 29.6846 19.0016 29.6846C19.2838 29.6846 19.5545 29.5725 19.754 29.373C19.9536 29.1734 20.0657 28.9027 20.0657 28.6205V21.1438L22.3619 24.5182C22.4648 24.6571 22.5988 24.7701 22.7532 24.8479C22.9076 24.9257 23.0781 24.9662 23.251 24.9662C23.4239 24.9662 23.5944 24.9257 23.7488 24.8479C23.9032 24.7701 24.0372 24.6571 24.1401 24.5182L26.3803 21.1578V28.6345C26.387 28.9061 26.496 29.1652 26.6855 29.3599C26.875 29.5546 27.131 29.6706 27.4024 29.6846Z" fill="#322D2D"/>
<path d="M42.1469 11.1752C42.0788 11.0447 41.9843 10.9298 41.8695 10.8377C41.7547 10.7455 41.6221 10.6783 41.48 10.64C41.3378 10.6018 41.1893 10.5935 41.0438 10.6156C40.8983 10.6377 40.7589 10.6897 40.6346 10.7684C40.5102 10.8471 40.4035 10.9508 40.3213 11.0728C40.239 11.1949 40.1829 11.3326 40.1566 11.4774C40.1303 11.6223 40.1343 11.7709 40.1684 11.9141C40.2025 12.0573 40.266 12.1918 40.3547 12.3093C42.2876 15.3764 43.3626 18.9056 43.4679 22.5294C43.5732 26.1532 42.7049 29.739 40.9534 32.9131C39.2018 36.0873 36.6313 38.7337 33.5094 40.5767C30.3875 42.4198 26.8285 43.392 23.2032 43.3921C18.1973 43.3974 13.3695 41.5352 9.66394 38.1696L14.0043 33.8292C14.1036 33.7299 14.1824 33.612 14.2361 33.4823C14.2898 33.3526 14.3175 33.2135 14.3175 33.0731C14.3175 32.9327 14.2898 32.7937 14.2361 32.664C14.1824 32.5342 14.1036 32.4164 14.0043 32.3171C13.905 32.2178 13.7872 32.139 13.6574 32.0853C13.5277 32.0315 13.3887 32.0039 13.2483 32.0039C13.1078 32.0039 12.9688 32.0315 12.8391 32.0853C12.7094 32.139 12.5915 32.2178 12.4922 32.3171L7.38173 37.4555C7.28182 37.5545 7.20252 37.6722 7.1484 37.802C7.09427 37.9318 7.06641 38.071 7.06641 38.2116C7.06641 38.3522 7.09427 38.4914 7.1484 38.6212C7.20252 38.751 7.28182 38.8687 7.38173 38.9677C11.2835 42.8395 16.4727 45.1417 21.9616 45.436C27.4506 45.7304 32.8561 43.9964 37.1496 40.564C41.4431 37.1316 44.3248 32.2405 45.2462 26.8214C46.1677 21.4024 45.0646 15.8337 42.1469 11.1752Z" fill="#322D2D"/>
<path d="M2.93025 23.1178C2.93766 17.7432 5.07603 12.5907 8.8765 8.79026C12.677 4.98979 17.8294 2.85142 23.2041 2.84401C28.2099 2.83867 33.0377 4.7009 36.7433 8.06648L32.4029 12.4069C32.3036 12.5062 32.2249 12.624 32.1711 12.7538C32.1174 12.8835 32.0897 13.0225 32.0897 13.1629C32.0897 13.3034 32.1174 13.4424 32.1711 13.5721C32.2249 13.7019 32.3036 13.8197 32.4029 13.919C32.5022 14.0183 32.6201 14.0971 32.7498 14.1508C32.8795 14.2045 33.0186 14.2322 33.159 14.2322C33.2994 14.2322 33.4384 14.2045 33.5682 14.1508C33.6979 14.0971 33.8158 14.0183 33.9151 13.919L38.8995 8.93456C39.0206 8.83384 39.1199 8.70957 39.1915 8.56929C39.263 8.429 39.3053 8.27564 39.3158 8.11851C39.3263 7.96137 39.3047 7.80375 39.2524 7.65521C39.2001 7.50667 39.1181 7.37031 39.0115 7.25441C35.1075 3.38711 29.9183 1.08963 24.4308 0.79896C18.9433 0.508293 13.5404 2.24472 9.24968 5.67796C4.959 9.1112 2.07988 14.0017 1.15995 19.4194C0.240017 24.837 1.34345 30.4038 4.26037 35.0609C4.32849 35.1914 4.42293 35.3063 4.53772 35.3984C4.65251 35.4905 4.78517 35.5578 4.9273 35.596C5.06943 35.6343 5.21794 35.6426 5.36345 35.6205C5.50896 35.5984 5.6483 35.5463 5.77267 35.4676C5.89704 35.3889 6.00373 35.2853 6.086 35.1633C6.16827 35.0412 6.22432 34.9034 6.25062 34.7586C6.27693 34.6138 6.2729 34.4651 6.23881 34.3219C6.20471 34.1788 6.14128 34.0442 6.05254 33.9268C4.01567 30.6893 2.93346 26.9428 2.93025 23.1178Z" fill="#322D2D"/>
<path d="M36.8428 16.5527H33.3985C32.7375 16.5527 32.1036 16.8153 31.6362 17.2827C31.1688 17.7501 30.9063 18.384 30.9062 19.045V27.1937C30.9063 27.8547 31.1688 28.4886 31.6362 28.956C32.1036 29.4233 32.7375 29.6859 33.3985 29.6859H36.8428C37.5038 29.6854 38.1379 29.4237 38.6069 28.9579C38.8401 28.7275 39.0247 28.4526 39.1498 28.1496C39.2749 27.8465 39.3378 27.5215 39.335 27.1937V19.045C39.3378 18.7172 39.2749 18.3921 39.1498 18.0891C39.0247 17.7861 38.8401 17.5112 38.6069 17.2808C38.1379 16.8149 37.5038 16.5533 36.8428 16.5527ZM37.1928 27.1937C37.194 27.2414 37.1845 27.2887 37.1652 27.3323C37.1458 27.3759 37.117 27.4146 37.0808 27.4457C37.0513 27.4801 37.0148 27.5078 36.9738 27.5271C36.9327 27.5464 36.8881 27.5569 36.8428 27.5577H33.3985C33.3511 27.5571 33.3043 27.5468 33.261 27.5276C33.2176 27.5083 33.1787 27.4805 33.1465 27.4457C33.1103 27.4146 33.0815 27.3759 33.0621 27.3323C33.0427 27.2887 33.0333 27.2414 33.0344 27.1937V19.045C33.0379 18.9495 33.0774 18.8589 33.1449 18.7914C33.2124 18.7239 33.303 18.6844 33.3985 18.6809H36.8428C36.8881 18.6818 36.9327 18.6922 36.9738 18.7115C37.0148 18.7308 37.0513 18.7586 37.0808 18.7929C37.1156 18.8252 37.1434 18.8641 37.1627 18.9075C37.1819 18.9508 37.1922 18.9976 37.1928 19.045V27.1937Z" fill="#322D2D"/>
</svg>
