<svg width="46" height="46" viewBox="0 0 46 46" fill="none" xmlns="http://www.w3.org/2000/svg">
<path fill-rule="evenodd" clip-rule="evenodd" d="M41.839 11.1758C41.7709 11.0454 41.6765 10.9305 41.5617 10.8383C41.4469 10.7462 41.3142 10.6789 41.1721 10.6407C41.03 10.6025 40.8815 10.5942 40.736 10.6163C40.5905 10.6384 40.4511 10.6904 40.3267 10.7691C40.2024 10.8478 40.0957 10.9515 40.0134 11.0735C39.9311 11.1955 39.8751 11.3333 39.8488 11.4781C39.8225 11.6229 39.8265 11.7716 39.8606 11.9148C39.8947 12.058 39.9581 12.1925 40.0469 12.3099C41.9797 15.377 43.0548 18.9063 43.1601 22.5301C43.2653 26.1539 42.397 29.7397 40.6455 32.9138C38.894 36.088 36.3234 38.7344 33.2015 40.5774C30.0796 42.4205 26.5206 43.3927 22.8953 43.3928C17.8895 43.3981 13.0617 41.5359 9.3561 38.1703L11.3163 36.2101C11.5452 36.452 11.8209 36.6449 12.1265 36.7773C12.4321 36.9096 12.7614 36.9786 13.0944 36.9802H32.6962C33.3541 36.9775 33.9858 36.7218 34.4604 36.2661C34.9249 35.7962 35.1864 35.1627 35.1884 34.502V16.7203C35.1877 16.4998 35.1192 16.2848 34.9924 16.1043L33.5923 14.0181L38.7868 8.76762C38.8867 8.66868 38.966 8.55092 39.0201 8.42115C39.0742 8.29138 39.1021 8.15216 39.1021 8.01156C39.1021 7.87095 39.0742 7.73174 39.0201 7.60196C38.966 7.47219 38.8867 7.35443 38.7868 7.25549C34.9035 3.29392 29.6885 0.914059 24.1513 0.576657C18.6142 0.239255 13.1488 1.96831 8.81326 5.42907C4.47772 8.88984 1.58044 13.8361 0.682322 19.3104C-0.215794 24.7846 0.949145 30.3974 3.95161 35.062C4.01972 35.1925 4.11416 35.3074 4.22895 35.3995C4.34375 35.4916 4.4764 35.5589 4.61853 35.5971C4.76066 35.6354 4.90917 35.6437 5.05468 35.6216C5.20019 35.5995 5.33953 35.5474 5.4639 35.4687C5.58827 35.39 5.69496 35.2864 5.77723 35.1643C5.8595 35.0423 5.91556 34.9045 5.94186 34.7597C5.96816 34.6149 5.96414 34.4662 5.93004 34.323C5.89594 34.1799 5.83252 34.0453 5.74377 33.9279C3.81093 30.8608 2.73587 27.3315 2.63058 23.7077C2.52529 20.0839 3.39363 16.4982 5.14513 13.324C6.89663 10.1499 9.46722 7.50345 12.5891 5.66042C15.711 3.81739 19.27 2.84519 22.8953 2.84509C27.9012 2.83975 32.729 4.70197 36.4345 8.06756L32.2342 12.2679L30.9461 10.4338C30.8405 10.2983 30.7071 10.187 30.555 10.1073C30.4029 10.0276 30.2354 9.98139 30.064 9.97173H15.6987C15.5253 9.97216 15.3546 10.0144 15.2011 10.0948C15.0475 10.1752 14.9156 10.2915 14.8166 10.4338L10.8262 16.1183C10.7213 16.3089 10.6547 16.5182 10.6302 16.7343V33.8719L7.07389 37.4562C6.97398 37.5552 6.89468 37.6729 6.84056 37.8027C6.78643 37.9325 6.75857 38.0717 6.75857 38.2123C6.75857 38.3529 6.78643 38.4921 6.84056 38.6219C6.89468 38.7517 6.97398 38.8694 7.07389 38.9684C10.9757 42.8402 16.1648 45.1424 21.6538 45.4367C27.1427 45.7311 32.5483 43.9971 36.8418 40.5647C41.1353 37.1323 44.017 32.2412 44.9384 26.8221C45.8599 21.4031 44.7568 15.8344 41.839 11.1758ZM12.7584 34.502V17.7844H25.0235V34.852H13.0944C13.0052 34.8452 12.9216 34.8057 12.8596 34.7411C12.7976 34.6765 12.7616 34.5914 12.7584 34.502ZM33.0322 34.502C33.0286 34.5961 32.9887 34.6851 32.9208 34.7504C32.8529 34.8156 32.7624 34.8521 32.6682 34.852H27.1657V17.0564L30.092 12.856L33.0322 17.0564V34.502ZM16.2307 12.0999H28.0338L25.5276 15.6562H13.7525L16.2307 12.0999Z" fill="#322D2D"/>
<path fill-rule="evenodd" clip-rule="evenodd" d="M20.0932 14.9146C20.3014 14.9146 20.505 14.8527 20.678 14.7367C20.851 14.6206 20.9855 14.4558 21.0646 14.2631C21.1436 14.0704 21.1636 13.8586 21.1219 13.6545C21.0803 13.4504 20.9789 13.2633 20.8306 13.1171C20.6823 12.9708 20.4939 12.8719 20.2893 12.833C20.0847 12.794 19.8731 12.8168 19.6815 12.8985C19.4899 12.9801 19.3269 13.1169 19.2132 13.2914C19.0995 13.4659 19.0403 13.6703 19.0431 13.8785C19.0467 14.1546 19.159 14.4181 19.3555 14.612C19.5521 14.806 19.8171 14.9147 20.0932 14.9146Z" fill="#322D2D"/>
</svg>
