<svg width="118" height="20" viewBox="0 0 118 20" fill="none" xmlns="http://www.w3.org/2000/svg">
<g clip-path="url(#clip0_625_2191)">
<path d="M9.49358 1.37902C9.84121 0.553346 11.0252 0.553347 11.3728 1.37902L13.4245 6.25231C13.5711 6.60039 13.9025 6.83822 14.2828 6.86835L19.6083 7.29014C20.5106 7.3616 20.8764 8.47401 20.189 9.05577L16.1316 12.4894C15.8418 12.7347 15.7151 13.1195 15.8037 13.4862L17.0433 18.6201C17.2533 19.4899 16.2955 20.1775 15.523 19.7114L10.9636 16.9601C10.638 16.7636 10.2284 16.7636 9.90275 16.9601L5.34337 19.7114C4.57087 20.1775 3.61302 19.4899 3.82304 18.6201L5.06267 13.4862C5.15121 13.1195 5.02464 12.7347 4.73484 12.4894L0.67736 9.05577C-0.0100933 8.47401 0.355776 7.3616 1.25807 7.29014L6.58358 6.86835C6.96397 6.83822 7.29532 6.60039 7.44187 6.25231L9.49358 1.37902Z" fill="#00B67A"/>
<path d="M33.7631 1.37902C34.1107 0.553346 35.2947 0.553347 35.6423 1.37902L37.694 6.25231C37.8406 6.60039 38.172 6.83822 38.5524 6.86835L43.8778 7.29014C44.7801 7.3616 45.146 8.47401 44.4585 9.05577L40.4011 12.4894C40.1113 12.7347 39.9847 13.1195 40.0732 13.4862L41.3128 18.6201C41.5229 19.4899 40.565 20.1775 39.7925 19.7114L35.2332 16.9601C34.9075 16.7636 34.4979 16.7636 34.1723 16.9601L29.6129 19.7114C28.8404 20.1775 27.8826 19.4899 28.0926 18.6201L29.3322 13.4862C29.4207 13.1195 29.2942 12.7347 29.0044 12.4894L24.9469 9.05577C24.2594 8.47401 24.6253 7.3616 25.5276 7.29014L30.8531 6.86835C31.2335 6.83822 31.5649 6.60039 31.7114 6.25231L33.7631 1.37902Z" fill="#00B67A"/>
<path d="M58.0366 1.37902C58.3842 0.553346 59.5681 0.553347 59.9158 1.37902L61.9674 6.25231C62.1141 6.60039 62.4454 6.83822 62.8258 6.86835L68.1512 7.29014C69.0535 7.3616 69.4194 8.47401 68.7319 9.05577L64.6745 12.4894C64.3848 12.7347 64.2581 13.1195 64.3467 13.4862L65.5863 18.6201C65.7963 19.4899 64.8385 20.1775 64.066 19.7114L59.5066 16.9601C59.1809 16.7636 58.7714 16.7636 58.4457 16.9601L53.8863 19.7114C53.1138 20.1775 52.156 19.4899 52.366 18.6201L53.6056 13.4862C53.6942 13.1195 53.5676 12.7347 53.2778 12.4894L49.2203 9.05577C48.5329 8.47401 48.8987 7.3616 49.801 7.29014L55.1265 6.86835C55.5069 6.83822 55.8383 6.60039 55.9848 6.25231L58.0366 1.37902Z" fill="#00B67A"/>
<path d="M82.3061 1.37902C82.6537 0.553346 83.8377 0.553347 84.1853 1.37902L86.237 6.25231C86.3836 6.60039 86.715 6.83822 87.0953 6.86835L92.4208 7.29014C93.3231 7.3616 93.6889 8.47401 93.0015 9.05577L88.9441 12.4894C88.6543 12.7347 88.5276 13.1195 88.6162 13.4862L89.8558 18.6201C90.0658 19.4899 89.108 20.1775 88.3355 19.7114L83.7761 16.9601C83.4505 16.7636 83.0409 16.7636 82.7152 16.9601L78.1559 19.7114C77.3834 20.1775 76.4255 19.4899 76.6355 18.6201L77.8752 13.4862C77.9637 13.1195 77.8371 12.7347 77.5473 12.4894L73.4899 9.05577C72.8024 8.47401 73.1683 7.3616 74.0706 7.29014L79.3961 6.86835C79.7765 6.83822 80.1078 6.60039 80.2544 6.25231L82.3061 1.37902Z" fill="#00B67A"/>
<path d="M106.576 1.37902C106.923 0.553346 108.107 0.553347 108.455 1.37902L110.507 6.25231C110.653 6.60039 110.985 6.83822 111.365 6.86835L116.69 7.29014C117.593 7.3616 117.958 8.47401 117.271 9.05577L113.214 12.4894C112.924 12.7347 112.797 13.1195 112.886 13.4862L114.125 18.6201C114.335 19.4899 113.378 20.1775 112.605 19.7114L108.046 16.9601C107.72 16.7636 107.31 16.7636 106.985 16.9601L102.425 19.7114C101.653 20.1775 100.695 19.4899 100.905 18.6201L102.145 13.4862C102.233 13.1195 102.107 12.7347 101.817 12.4894L97.7594 9.05577C97.0719 8.47401 97.4378 7.3616 98.3401 7.29014L103.666 6.86835C104.046 6.83822 104.377 6.60039 104.524 6.25231L106.576 1.37902Z" fill="#00B67A"/>
</g>
<defs>
<clipPath id="clip0_625_2191">
<rect width="117.309" height="19.1021" fill="white" transform="translate(0.320312 0.759766)"/>
</clipPath>
</defs>
</svg>
